<svg xmlns="http://www.w3.org/2000/svg" width="34.222" height="22.848" viewBox="0 0 34.222 22.848">
  <g id="Group_23733" data-name="Group 23733" transform="translate(-38.6 -98.6)">
    <path id="Path_55358" data-name="Path 55358" d="M69.094,120.121h-29a1.3,1.3,0,0,1-1.3-1.3V99.9a1.3,1.3,0,0,1,1.3-1.3h29a1.3,1.3,0,0,1,1.3,1.3v18.912A1.3,1.3,0,0,1,69.094,120.121Z" transform="translate(-0.185)" fill="#4fc3ff"/>
    <rect id="Rectangle_6420" data-name="Rectangle 6420" width="31.598" height="3.41" transform="translate(38.6 103.04)" fill="#242456"/>
    <path id="Path_55359" data-name="Path 55359" d="M76.8,335.665h0a.462.462,0,0,0,.465.465h2.167a.462.462,0,0,0,.465-.465h0a.462.462,0,0,0-.465-.465H77.265A.472.472,0,0,0,76.8,335.665Zm3.738,0h0a.462.462,0,0,0,.465.465H84.65a.462.462,0,0,0,.465-.465h0a.462.462,0,0,0-.465-.465H81A.472.472,0,0,0,80.538,335.665Zm5.218,0h0a.462.462,0,0,0,.465.465h6.614a.462.462,0,0,0,.465-.465h0a.462.462,0,0,0-.465-.465H86.221A.472.472,0,0,0,85.756,335.665Z" transform="translate(-35.286 -218.55)" fill="#f2f2f2"/>
    <rect id="Rectangle_6421" data-name="Rectangle 6421" width="13.243" height="2.548" rx="1.274" transform="translate(41.514 112.751)" fill="#f2f2f2"/>
    <path id="Path_55361" data-name="Path 55361" d="M4.936,0A4.936,4.936,0,1,1,0,4.936,4.936,4.936,0,0,1,4.936,0Z" transform="translate(62.951 111.576)" fill="#eb0e0e"/>
    <path id="Path_55360" data-name="Path 55360" d="M392.775,300.245l-1.381,1.381-1.381-1.381a.685.685,0,1,0-.969.969l1.381,1.381-1.343,1.381a.7.7,0,0,0,0,.969h0a.7.7,0,0,0,.969,0l1.381-1.381,1.381,1.381a.685.685,0,0,0,.969-.969l-1.381-1.381,1.381-1.381a.7.7,0,0,0,0-.969h0A.748.748,0,0,0,392.775,300.245Z" transform="translate(-323.53 -186.082)" fill="#f2f2f2"/>
  </g>
</svg>
